<svg width="1254" height="1254" viewBox="0 0 1254 1254" fill="none" xmlns="http://www.w3.org/2000/svg">
<path d="M618.238 79.8789C648.834 79.1245 691.494 82.7647 721.264 87.1365C809.154 100.043 910.84 126.998 977.14 189.363C1040.08 248.574 1073.96 331.393 1077.14 416.999C1137.59 433.267 1152.98 491.119 1144.19 546.957C1134.47 608.671 1087.12 650.653 1023.31 639.656C1009.24 701.371 977.991 744.207 918.353 769.085C942.581 802.511 959.003 835.631 966.908 876.563C974.599 916.418 972.652 963.664 949.121 997.94C919.485 1041.11 864.335 1061.66 814.83 1071.25C792.671 1100.86 772.753 1124.31 739.56 1142.82C687.336 1171.94 618.538 1158.88 589.341 1104.04C551.566 1101.33 520.607 1095.87 483.912 1086.68C470.175 1096.36 458.141 1102.47 442.437 1108.3C405.415 1121.75 366.67 1124.91 328.865 1109.8C279.882 1090.23 259.277 1038.73 278.903 990.103C287.312 969.272 304.392 953.034 325.659 944.713C323.862 923.288 327.657 898.19 332.619 877.42C302.676 864.372 260.782 839.868 233.561 820.488C165.493 772.037 82.692 695.909 66.2657 609.843C61.5552 585.164 65.0949 556.049 79.9831 535.347C89.4567 522.026 103.87 513.053 120.004 510.432C154.145 504.832 180.669 528.402 202.846 550.884C229.299 577.703 256.716 601.093 287.281 623.002C261.712 582.012 256.208 531.342 264.837 484.467C221.13 471.255 197.763 441.735 198.23 394.954C198.547 363.135 210.895 328.183 233.97 305.603C253.957 286.044 276.613 279.97 304.021 280.362C315.056 245.923 343.804 200.397 368.616 174.179C436.84 102.09 522.876 82.7163 618.238 79.8789Z" fill="#040B12"/>
<path d="M366.22 537.916C355.516 482.516 398.971 373.718 429.993 327.27C457.201 286.532 489.646 253.405 540.088 243.55C606.999 230.478 682.346 244.848 746.962 263.307C761.921 267.58 791.409 278.535 803.925 286.722C847.411 309.052 870.727 352.986 884.902 397.74C907.796 470.025 911.752 558.22 882.857 629.333C858.677 631.488 841.392 630.41 817.383 627.3C798.126 624.324 773.769 619.995 754.555 615.507C752.651 594.171 731.551 596.501 714.884 592.138C706.789 590.02 684.991 584.505 677.545 585.581C672.298 586.294 667.595 589.203 664.619 593.583C660.37 599.85 659.421 609.298 661.031 616.634C661.956 620.859 665.054 624.41 668.673 626.633C674.802 630.398 720.829 640.605 729.554 641.671C732.506 642.032 735.573 642.044 738.457 641.242C744.397 639.589 747.47 636.025 750.477 630.913C768.295 634.678 786.193 638.064 804.151 641.071C831.613 645.149 845.684 646.171 873.03 646.018L872.577 646.655C852.401 674.423 819.018 683.657 786.664 688.714C679.125 705.522 508.561 678.881 419.333 613.548C394.211 595.156 371.139 569.734 366.22 537.916Z" fill="white"/>
<path d="M803.926 286.722C847.412 309.052 870.728 352.986 884.903 397.74C907.797 470.025 911.753 558.22 882.858 629.333C858.678 631.488 841.393 630.411 817.384 627.3C828.308 626.277 845.967 582.053 849.561 570.348C872.332 496.171 869.602 402.35 835.006 332.133C830.267 322.729 824.616 313.809 818.144 305.5C814.506 300.863 806.136 291.516 803.926 286.722Z" fill="#DBDBDB"/>
<path d="M366.221 537.916C369.55 540.288 377.194 554.33 380.524 558.621C390.714 571.86 402.478 583.81 415.555 594.207C491.384 654.719 629.486 673.89 724.056 665.777C743.362 664.124 790.963 654.143 804.152 641.071C831.614 645.149 845.685 646.171 873.03 646.018L872.577 646.655C852.402 674.423 819.019 683.657 786.665 688.714C679.126 705.522 508.562 678.881 419.333 613.548C394.212 595.156 371.139 569.734 366.221 537.916Z" fill="#DBDBDB"/>
<path d="M542.124 501.588C548.64 501.067 557.024 503.349 563.545 504.736L593.139 511.054L633.564 519.694C639.828 521.037 659.33 524.436 663.689 528.349C673.927 537.535 664.553 558.786 659.428 568.853C654.278 578.965 646.796 587.732 637.734 594.984C632.762 598.86 627.263 602.015 621.41 604.354C604.131 611.247 584.765 610.231 567.865 603.057C538.511 590.675 523.967 557.888 527.024 527.289C528.245 515.062 529.267 506.102 542.124 501.588Z" fill="#040B12"/>
<path d="M583.886 558.043C602.449 556.861 618.152 565.358 629.878 579.23C621.33 587.126 613.407 590.079 602.187 591.922C584.873 594.891 566.894 586.225 556.371 572.645C563.28 562.333 572.29 559.313 583.886 558.043Z" fill="#F95357"/>
<path d="M499.569 382.828C539.263 380.107 530.41 440.794 516.532 461.234C509.77 471.194 505.106 476.468 492.954 479.315C449.126 481.796 459.058 392.983 499.569 382.828Z" fill="#040B12"/>
<path d="M502.266 401.715C517.029 403.92 515.641 425.02 501.024 430.14C485.087 426.921 488.665 406.788 502.266 401.715Z" fill="white"/>
<path d="M736.499 434.211C782.25 431.182 771.939 517.792 732.972 529.33C686.884 533.403 696.84 444.035 736.499 434.211Z" fill="#040B12"/>
<path d="M737.386 453.121C751.739 455.028 750.9 474.111 737.258 479.623C722.122 477.949 723.554 457.837 737.386 453.121Z" fill="white"/>
<path d="M290.577 577.869C284.664 559.59 281.894 540.439 282.383 521.234C284.869 431.167 356.489 279.401 422.593 216.936C481.863 160.928 554.444 152.346 632.75 154.563C660.414 155.344 688.004 157.744 715.386 161.754C779.513 171.412 882.496 198.07 928.762 247.033C934.45 251.345 940.714 258.711 945.503 264.098C978.585 301.305 999.52 356.02 1006.34 405.082C1007.12 411.077 1007.85 417.081 1008.51 423.09C980.563 451.138 970.699 499.71 970.748 538.315C971.96 557.166 973.056 574.309 979.59 592.364C972.052 596.899 965.182 601.066 957.357 605.075C941.321 613.554 925.437 619.432 908.072 624.447C936.943 534.154 927.746 429.083 886.501 343.744C860.509 289.951 814.084 260.261 758.652 243.762C682.971 220.878 566.786 199.053 492.812 237.112C424.788 272.109 381.464 359.529 359.806 428.978C345.345 475.347 332.709 532.103 356.997 576.902C387.503 633.172 463.315 667.982 521.834 685.702C554.811 695.719 588.482 703.293 622.573 708.351C688.494 718.074 791.49 722.066 853.351 690.772C874.481 680.081 888.84 663.193 899.941 642.546C920.361 637.875 929.607 634.562 949.085 627.116C963.296 620.559 972.462 615.654 985.921 607.736C991.977 618.532 994.101 622.108 1003.6 630.313C988.805 694.066 955.612 738.317 890.309 755.706C861.972 763.256 831.626 767.879 802.236 769.459C661.424 777.033 511.904 751.163 386.846 684.22C344.235 661.13 303.87 625.463 290.577 577.869Z" fill="#FE6100"/>
<path d="M290.677 567.053C293.038 568.017 305.452 586.915 308.005 590.605C355.736 659.617 445.042 699.325 524.857 720.046C628.573 746.975 762.919 760.789 865.939 723.358C902.304 709.422 932.246 677.993 945.288 642.43C946.421 639.326 950.162 630.233 949.084 627.116C963.296 620.558 972.462 615.654 985.92 607.736C991.976 618.532 994.101 622.108 1003.6 630.313C988.804 694.066 955.611 738.317 890.309 755.706C861.972 763.256 831.626 767.879 802.235 769.459C661.423 777.033 511.904 751.163 386.845 684.22C344.235 661.13 303.869 625.463 290.576 577.869C291.612 575.718 290.863 569.781 290.677 567.053Z" fill="#E44600"/>
<path d="M290.577 577.869C284.664 559.59 281.894 540.439 282.383 521.234C284.869 431.167 356.489 279.401 422.593 216.936C481.863 160.928 554.444 152.346 632.75 154.563C660.414 155.344 688.004 157.744 715.386 161.754C779.513 171.412 882.496 198.07 928.762 247.033C923.594 246.396 901.068 231.429 894.216 228.398C878.719 221.547 863.025 214.147 846.817 208.647C743.258 172.99 569.418 143.568 469.221 198.344C386.955 243.318 325.022 386.074 301.574 471.627C296.428 490.403 285.237 549.289 290.678 567.054C290.864 569.781 291.612 575.718 290.577 577.869Z" fill="#FEA451"/>
<path d="M970.748 538.315C971.96 557.166 973.056 574.309 979.589 592.364C972.052 596.898 965.182 601.066 957.356 605.075C960.387 593.593 962.806 581.959 964.612 570.222C965.849 562.555 968.249 544.653 970.748 538.315Z" fill="#E44600"/>
<path d="M429.732 729.041C536.105 774.988 681.036 798.898 796.584 791.085C797.092 815.229 802.358 842.188 806.399 866.031C786.83 863.754 767.083 863.46 747.453 865.15C736.15 865.921 718.827 869.644 708.608 873.74C682.573 884.18 668.71 897.583 657.603 922.719L648.149 927.709C598.043 924.874 542.247 911.318 494.786 895.355C485.179 892.122 469.752 886.623 460.823 882.227C459.915 880.01 458.376 875.075 458 872.846C450.729 829.752 433.6 825.319 396.818 806.669L383.876 800.619C390.748 784.166 409.482 755.829 419.685 741.268L429.732 729.041Z" fill="#FE6100"/>
<path d="M429.732 729.041C536.105 774.988 681.036 798.898 796.584 791.085C797.092 815.229 802.358 842.188 806.399 866.031C786.83 863.754 767.083 863.46 747.452 865.15C750.012 854.049 752.4 830.738 752.669 819.349C748.077 819.386 743.466 819.582 738.874 819.692C640.74 821.97 538.847 804.966 450.945 759.852C444.554 756.57 438.522 752.382 432.084 749.155L419.685 741.268L429.732 729.041Z" fill="#E44600"/>
<path d="M383.876 800.619C390.748 784.166 409.482 755.829 419.685 741.268L432.084 749.155C419.868 765.669 405.76 788.134 396.818 806.669L383.876 800.619Z" fill="#FEA451"/>
<path d="M375.945 817.408C379.93 819.166 384.24 821.321 388.214 823.195C400.597 829.244 418.283 836.604 428.054 846.04C438.713 857.674 438.446 881.1 445.482 893.34C449.885 901.006 481.559 910.828 490.072 913.889C534.047 929.711 578.654 938.143 624.826 944.302C604.547 962.898 592.198 977.575 582.885 1004.28C574.108 1032.83 574.69 1053.42 580.906 1082.1C527.988 1077.87 460.944 1062.1 413.999 1036.52C409.28 1033.95 398.338 1027.31 394.774 1024.12C376.374 1011.53 360.471 992.809 352.465 971.893C335.06 926.423 356.775 860.006 375.945 817.408Z" fill="#FE6100"/>
<path d="M375.945 817.408C379.93 819.166 384.24 821.321 388.214 823.195C377.724 844.742 362.295 884.725 359.126 908.728C362.426 911.899 365.582 917.857 368.56 921.702C375.331 930.36 382.638 938.584 390.44 946.323C428.716 983.729 489.839 1006.84 543.236 1008.2C558.176 1008.58 568.245 1007.31 582.885 1004.28C574.108 1032.83 574.69 1053.42 580.906 1082.1C527.988 1077.87 460.944 1062.1 413.999 1036.52C409.28 1033.95 398.338 1027.31 394.774 1024.12C376.374 1011.53 360.471 992.809 352.465 971.893C335.06 926.423 356.775 860.006 375.945 817.408Z" fill="#E44600"/>
<path d="M375.945 817.408C379.93 819.166 384.24 821.321 388.214 823.195C377.724 844.742 362.295 884.725 359.126 908.728C352.101 947.535 359.043 983.551 385.966 1013.33C387.82 1015.38 394.155 1021.93 394.774 1024.12C376.374 1011.53 360.471 992.809 352.465 971.893C335.06 926.423 356.775 860.006 375.945 817.408Z" fill="#FEA451"/>
<path d="M598.685 1062.24C598.653 1062.16 598.621 1062.09 598.59 1062.01C594.586 1039.66 599.688 1012.74 610.613 992.938C634.348 949.923 685.457 928.964 731.404 919.565C750.294 915.708 774.976 912.095 792.573 921.708C796.272 923.539 799.162 925.664 802.174 928.487C816.814 941.057 823.856 960.877 825.356 979.816C828.797 1019.96 805.101 1051.77 780.456 1080.7C756.888 1108.37 725.152 1133.22 687.594 1136.02C667.663 1137.5 640.654 1130.19 626.161 1115.91C610.805 1103.46 600.453 1081.73 598.685 1062.24Z" fill="#FE6100"/>
<path d="M802.174 928.487C816.814 941.057 823.856 960.877 825.356 979.816C828.797 1019.96 805.101 1051.77 780.455 1080.7C756.888 1108.37 725.152 1133.22 687.593 1136.02C667.663 1137.5 640.654 1130.19 626.161 1115.91C627.171 1113.64 618.078 1095.44 616.278 1090.61L614.784 1085.12L615.09 1082.9C618.262 1083.12 620.742 1086.39 622.352 1088.88C642.442 1119.98 679.095 1119.13 707.218 1099.33C720.688 1089.84 729.402 1079.52 741.58 1068.84C765.258 1048.09 794.814 1032.18 807.244 1001.38C814.053 984.102 816.532 964.98 810.067 947.217C808.126 941.878 802.805 933.214 802.174 928.487Z" fill="#E44600"/>
<path d="M598.685 1062.24C598.653 1062.16 598.621 1062.09 598.59 1062.01C594.586 1039.66 599.688 1012.74 610.613 992.938C634.348 949.923 685.457 928.964 731.404 919.565C750.294 915.708 774.976 912.095 792.573 921.708C786.365 922.915 779.623 922.59 773.341 923.398C720.591 930.207 661.981 949.176 629.535 993.985C612.24 1017.86 604.972 1057.08 614.784 1085.12L616.278 1090.61C618.079 1095.44 627.171 1113.64 626.161 1115.91C610.805 1103.46 600.453 1081.73 598.685 1062.24Z" fill="#FEA451"/>
<path d="M598.685 1062.24C603.661 1069.79 605.765 1083.77 616.279 1090.61C618.079 1095.44 627.171 1113.64 626.161 1115.91C610.805 1103.46 600.453 1081.73 598.685 1062.24Z" fill="#FE6100"/>
<path d="M330.288 285.518C322.711 283.724 327.995 278.52 330.449 272.768C338.597 253.662 349.139 236.212 360.633 219.097C403.065 155.917 471.68 119.999 545.629 108.019C644.861 91.8273 764.255 109.257 858.647 144.006C877.898 151.094 908.422 165.368 925.107 177.176C932.84 181.556 943.329 189.949 950.328 195.586C996.82 233.021 1029.05 288.369 1044.86 345.563C1050.77 367.246 1054.38 389.493 1055.64 411.934C1045.54 410.934 1038.85 410.042 1028.86 412.322C1020.25 338.834 988.719 263.519 928.42 217.582C834.119 145.746 669.415 123.142 554.406 135.711C479.832 143.86 423.326 175.79 377.334 234.227C363.763 251.639 351.457 269.999 340.509 289.168C337.296 287.933 333.574 286.359 330.288 285.518Z" fill="#FE6100"/>
<path d="M330.288 285.518C322.711 283.724 327.995 278.52 330.449 272.768C338.597 253.662 349.139 236.212 360.633 219.097C403.065 155.917 471.68 119.999 545.629 108.019C644.861 91.8273 764.255 109.257 858.647 144.006C877.898 151.094 908.422 165.368 925.107 177.176C920.484 176.267 912.91 172.35 908.367 170.28C887.885 160.956 866.779 151.942 844.889 146.062C716.152 111.475 559.098 86.9619 438.006 157.398C391.964 184.869 351.551 237.454 330.288 285.518Z" fill="#FEB068"/>
<path d="M261.541 631.237C266.426 634.599 277.005 641.432 281.194 644.898L359.737 693.111C364.41 696.025 381.928 705.43 384.453 707.432C393.333 711.7 402.173 716.048 410.973 720.481C380.166 756.496 352.616 811.016 338.729 856.29C295.415 836.806 249.122 806.76 212.501 776.831C211.345 762.797 211.645 747.312 214.052 733.388C217.167 715.398 224.177 690.263 232.855 673.952C236.104 664.773 246.026 649.668 251.658 642.032C255.164 637.752 257.605 635.138 261.541 631.237Z" fill="#E44600"/>
<path d="M261.541 631.237C266.426 634.599 277.005 641.432 281.194 644.898C287.323 655.907 296.699 665.459 301.654 674.552C306.178 678.134 310.806 681.581 315.532 684.893C329.933 703.238 342.292 719.758 339.55 744.501C336.744 769.82 316.209 788.177 290.402 783.891C260.723 778.968 232.71 755.798 214.052 733.388C217.167 715.398 224.177 690.263 232.855 673.952C236.104 664.773 246.026 649.668 251.658 642.032C255.164 637.752 257.605 635.138 261.541 631.237Z" fill="#FE6100"/>
<path d="M261.541 631.237C266.426 634.599 277.005 641.432 281.195 644.898C287.323 655.907 296.7 665.459 301.654 674.552C288.929 667.394 275.82 657.499 263.263 649.741C260.289 647.102 255.187 644.2 251.658 642.032C255.164 637.752 257.606 635.138 261.541 631.237Z" fill="#FEA451"/>
<path d="M232.855 673.952C236.104 664.773 246.026 649.668 251.658 642.032C255.187 644.2 260.289 647.102 263.263 649.741C245.852 654.327 239.465 671.827 232.855 673.952Z" fill="#FE9237"/>
<path d="M281.194 644.898L359.737 693.111C364.41 696.025 381.928 705.43 384.453 707.432C385.07 708.051 385.939 708.761 386.615 709.349L386.705 709.967L388.15 710.733C384.62 709.337 383.213 710.494 379.956 709.931C376.407 709.324 372.006 708.069 368.572 706.992C350.26 701.26 332.799 693.147 315.532 684.893C310.807 681.581 306.178 678.134 301.654 674.552C296.7 665.459 287.323 655.907 281.194 644.898Z" fill="#FE6100"/>
<path d="M816.717 789.653C845.746 786.812 867.869 783.83 896.329 776.402C932.289 821.272 954.393 878.847 948.754 937.169C945.962 965.972 932.136 991.285 909.45 1009.26C889.599 1024.99 856.125 1040.05 831.143 1045.53C842.311 1022.13 842.685 1018.69 845.924 993.336C846.493 986.221 846.089 980.612 845.403 973.552C841.105 945.619 833.873 930.195 813.68 910.785C824.205 910.081 828.889 911.458 833.788 901.221C827.959 867.899 819.062 822.625 816.717 789.653Z" fill="#FE6100"/>
<path d="M816.717 789.653C845.746 786.812 867.869 783.83 896.329 776.402C932.289 821.272 954.394 878.847 948.754 937.169C945.962 965.972 932.136 991.285 909.45 1009.26C889.599 1024.99 856.125 1040.05 831.143 1045.53C842.311 1022.13 842.685 1018.69 845.924 993.336C849.126 992.809 853.431 992.46 856.731 992.111C884.003 989.16 909.946 974.14 922.443 949.164C936.557 920.949 932.663 887.811 923.319 858.751C915.867 835.569 904.344 812.234 881.768 800.582C866.424 792.696 839.311 792.108 830.53 809.761C831.228 834.063 837.376 857.882 838.65 881.982C838.925 887.174 834.768 895.777 833.788 901.221C827.959 867.899 819.062 822.625 816.717 789.653Z" fill="#E44600"/>
<path d="M845.403 973.552C851.232 977.091 853.663 985.823 856.731 992.111C853.431 992.46 849.126 992.809 845.924 993.336C846.493 986.221 846.089 980.612 845.403 973.552Z" fill="#E44600"/>
<path d="M91.9291 621.324C77.4861 580.798 92.6535 512.917 151.057 537.377C167.296 544.178 193.043 572.76 207.28 586.018C219.547 597.271 232.1 608.21 244.925 618.826L236.165 628.8C216.097 655.656 202.299 686.669 195.785 719.556C193.077 733.517 192.367 745.469 192.093 759.558C152.964 724.516 107.444 673.664 92.073 622.248L91.9291 621.324Z" fill="#FE6100"/>
<path d="M91.9291 621.324C77.4861 580.798 92.6535 512.917 151.057 537.377C167.296 544.178 193.043 572.76 207.28 586.018C219.547 597.271 232.1 608.21 244.925 618.826L236.165 628.8C230.01 622.714 218.658 612.96 211.728 607.45C191.876 591.668 164.544 557.783 139.955 552.14C131.431 550.097 122.44 551.698 115.145 556.557C100.138 566.37 94.5596 586.319 93.109 603.208C92.6492 608.565 93.0802 616.37 91.9291 621.324Z" fill="#FEA451"/>
<path d="M93.0921 609.13C100.175 619.897 106.455 631.623 113.465 642.301C132.462 671.233 164.712 703.556 195.785 719.556C193.077 733.517 192.368 745.469 192.093 759.558C152.964 724.516 107.444 673.664 92.0732 622.249C93.8857 620.099 93.1497 612.501 93.0921 609.13Z" fill="#E44600"/>
<path d="M221.012 384.473C221.036 381.471 221.835 377.35 222.47 374.37C233.485 322.667 267.137 293.777 320.577 304.941C323.517 305.658 327.141 306.152 329.297 308.03C329.7 309.731 329.137 310.257 328.053 311.788C302.372 361.222 281.749 407.848 269.248 462.729C247.507 456.769 231.632 444.978 224.334 422.987C220.647 412.543 218.819 395.31 221.012 384.473Z" fill="#7D8599"/>
<path d="M273.966 411.933C286.138 378.862 293.617 341.283 321.308 316.361C323.556 314.338 325.148 312.88 328.053 311.788C302.372 361.222 281.749 407.848 269.248 462.729C247.507 456.769 231.632 444.978 224.334 422.987C220.647 412.543 218.819 395.31 221.012 384.473C221.191 388.326 221.131 391.178 220.989 395.033C223.092 396.799 224.544 398.031 226.437 400.009L226.605 400.587C242.115 408.767 256.143 414.227 273.966 411.933Z" fill="#60697D"/>
<path d="M221.012 384.473C221.191 388.326 221.131 391.178 220.989 395.033C223.092 396.799 224.544 398.031 226.437 400.009L226.605 400.587C226.171 404.681 225.693 421.164 224.685 422.907L224.334 422.987C220.647 412.543 218.819 395.31 221.012 384.473Z" fill="white"/>
<path d="M221.012 384.473C221.036 381.471 221.835 377.35 222.47 374.37C233.485 322.667 267.136 293.777 320.577 304.941C317.772 307.089 316.98 307.788 314.634 310.42C309.714 310.75 304.912 311.057 300.018 311.694C254.168 317.662 232.235 357.999 226.437 400.009C224.543 398.031 223.092 396.799 220.988 395.033C221.131 391.178 221.191 388.326 221.012 384.473Z" fill="#DBDBDB"/>
<path d="M305.961 1066.49C281.133 1035.27 292.268 983.19 328.89 966.021C329.812 970.019 331.423 974.501 332.735 978.445C348.496 1020.15 381.703 1046.07 421.19 1063.9C432.948 1069.16 444.956 1073.84 457.172 1077.91C424.286 1095.86 383.418 1102.94 346.828 1092.78C332.057 1088.68 315.014 1079.22 305.961 1066.49Z" fill="#E44600"/>
<path d="M305.961 1066.49C281.133 1035.27 292.268 983.19 328.89 966.021C329.812 970.019 331.423 974.501 332.735 978.445L327.088 982.076C329.605 989.362 332.286 997.604 335.493 1004.52C344.781 1024.53 360.662 1043.49 377.314 1057.92C367.463 1064.5 360.643 1068.98 348.023 1068.25C333.245 1067.39 319.712 1060.53 309.029 1050.48C306.538 1048.13 304.664 1045.37 302.404 1043.17C302.694 1049.06 306.763 1064.55 305.961 1066.49Z" fill="#FE6100"/>
<path d="M305.961 1066.49C281.133 1035.27 292.268 983.19 328.89 966.021C329.812 970.019 331.423 974.501 332.735 978.445L327.088 982.076C307.433 998.559 301.901 1018.32 302.404 1043.17C302.694 1049.06 306.763 1064.55 305.961 1066.49Z" fill="#FEA451"/>
<path d="M1044.26 432.296C1063.23 432.015 1090.81 443.645 1104.34 457.042C1067.55 460.608 1057.28 522.688 1058.19 551.804C1038.7 559.724 1023.97 561.835 1003.52 554.887C1001.29 554.125 998.351 553.719 996.538 552.263C994.922 547.831 995.865 545.476 992.521 541.347C992.515 511.562 995.999 485.002 1009.31 457.597C1012.24 451.56 1016.57 444.353 1021.29 439.52C1028.62 432.003 1034.64 432.268 1044.26 432.296Z" fill="#7D8599"/>
<path d="M992.521 541.347C992.515 511.562 995.999 485.002 1009.31 457.597C1012.24 451.56 1016.57 444.353 1021.29 439.52C1028.62 432.003 1034.64 432.268 1044.26 432.296L1047.59 432.988L1047.87 433.602C1045.74 435.508 1042.88 435.705 1040.84 437.132C1011.67 457.582 1003.15 498.994 998.479 532.276C997.959 535.964 997.702 550.16 996.538 552.263C994.922 547.831 995.865 545.476 992.521 541.347Z" fill="#DBDBDB"/>
<path d="M1079.33 547.143C1079.46 526.777 1084.38 497.068 1098.43 481.104C1104.22 474.528 1110.56 474.443 1116.15 481.172C1131.87 507.696 1125.88 569.183 1100.02 590.533C1094.35 595.218 1086.32 589.668 1084.81 583.742C1080.12 571.962 1079.25 559.695 1079.33 547.143Z" fill="#DBDBDB"/>
<path d="M1079.33 547.143C1079.46 526.777 1084.38 497.068 1098.43 481.104C1104.22 474.528 1110.56 474.443 1116.15 481.172C1107.2 486.517 1106.63 484.358 1101.95 496.109C1096.96 508.621 1093.42 521.419 1090.96 534.655C1089.89 540.256 1089.12 548.048 1087.91 553.212C1084.56 550.526 1083.06 549.315 1079.33 547.143Z" fill="white"/>
<path d="M992.521 541.347C995.865 545.476 994.922 547.831 996.538 552.263C998.351 553.719 1001.29 554.125 1003.52 554.886C1023.97 561.835 1038.7 559.724 1058.19 551.803C1059.29 572.188 1060.81 598.119 1079.86 610.117C1065.02 617.534 1042.63 622.463 1026.1 618.036C1015.03 615.072 1009.26 606.04 1004.3 596.595C1010.1 592.209 1013.81 590.27 1020.17 587.042C1022.87 585.678 1025.07 583.218 1025.73 580.149C1026.3 577.417 1025.76 574.569 1024.23 572.231C1017.35 561.809 1004.38 575.516 997.934 580.311C994.273 567.174 993.079 554.832 992.521 541.347Z" fill="#60697D"/>
<path d="M745.909 883.874C762.441 880.819 793.675 882.398 810.14 884.829C810.52 887.56 810.875 890.622 811.328 893.304C807.372 893.463 803.956 893.585 800.012 894.044C786.462 897.553 787.148 896.585 773.634 894.54C762.699 894.522 754.665 895.024 743.754 896.218C745.119 892.483 746.632 888.754 746.834 884.792L745.909 883.874Z" fill="#E44600"/>
<path d="M773.635 894.54C781.35 892.63 792.451 890.756 800.013 894.044C786.463 897.553 787.148 896.585 773.635 894.54Z" fill="#9F2300"/>
<path d="M684.899 911.281C701.003 893.016 722.189 886.213 745.909 883.874L746.834 884.792C746.632 888.754 745.12 892.483 743.754 896.218C720.26 900.296 707.451 903.945 684.899 911.281Z" fill="#FE6100"/>
</svg>
