<svg id="TJCAR" data-name="TJCAR" xmlns="http://www.w3.org/2000/svg" viewBox="0 0 280 70">
    <defs>
        <style>
            .cls-1{fill:#f15025}
        </style>
    </defs>
    <path d="M96.48 39.53a3.93 3.93 0 0 0 4.12 3.27c1.8 0 3.51-1.11 3.51-2.78V27.16h-6.57v-6.61h13.8V40c0 6.29-5.51 9.84-11 9.84-5 0-9.92-2.78-10.74-8.9ZM144.23 43.37a11.63 11.63 0 0 1-10.41 6.49c-5.67 0-11.38-3.31-11.38-9.88V30c0-6.53 5.71-9.88 11.51-9.88a10.72 10.72 0 0 1 10.16 6.66l-6 2.4c-2-3.59-8.41-2.77-8.41.82v10c0 3.47 6.53 4.45 8.12.45ZM171.21 49.45h-7.84l-1.87-5.8h-7.72l-1.78 5.8h-7.84l10.08-28.9h6.65Zm-11.47-12.29-2-8.45h-.2l-2.13 8.45ZM181.82 40.26h-1.3v9.19h-7.39v-28.9h11.55c6 0 10.57 2.74 10.73 9.51 0 5.35-2.16 8.37-5.67 9.47l7.88 9.92h-9.11Zm3-6.28a3.31 3.31 0 1 0 0-6.61h-4.28V34ZM206.92 20.55h7.35v21.68h11.75v7.22h-19.1v-28.9zM228.92 20.55h7.35v21.68h11.75v7.22h-19.1v-28.9zM271.77 43.37a11.63 11.63 0 0 1-10.41 6.49c-5.67 0-11.36-3.31-11.36-9.86V30c0-6.53 5.71-9.88 11.51-9.88a10.72 10.72 0 0 1 10.16 6.66l-6 2.4c-2-3.59-8.41-2.77-8.41.82v10c0 3.47 6.53 4.45 8.13.45Z"/>
    <path class="cls-1" d="M42.06 9.94v7.33l-4.99-2.9-3.16-1.84-3.16 1.84-5.03 2.93v32.73l-6.32-3.68V20.97L8.23 27.46v-7.33l11.17-6.49 6.32-3.68 5.03-2.92 3.16-1.83V5.2v.01l3.16 1.83 4.99 2.9z"/>
    <path class="cls-1" d="M37.07 15.79v47.17l-3.16 1.84-3.16-1.84-16.2-9.42-6.32-3.67V37.76l6.32-3.67v12.12l16.2 9.42V15.79l3.16-1.84 3.16 1.84zM53.27 31.74v-7.95l-4.89-2.84v28.1l4.89-2.84v-3.85l6.32-3.68v11.19l-6.32 3.67-4.89 2.85-6.32 3.67V9.94l6.32 3.67 4.89 2.84 6.32 3.68v7.94l-6.32 3.67z"/>
    <path d="M85.13 27.45v22h-7.38v-22h-7.68v-6.94h22.74v6.94h-7.68z"/>
</svg>
