<svg id="Layer_1" data-name="Layer 1" xmlns="http://www.w3.org/2000/svg" viewBox="0 0 280 70"><defs><style>.cls-1{fill:#f15025;}</style></defs><title>tjcar_logo</title><path d="M96.48,39.53a3.93,3.93,0,0,0,4.12,3.27c1.8,0,3.51-1.11,3.51-2.78V27.16H97.54V20.55h13.8V40c0,6.29-5.51,9.84-11,9.84-5,0-9.92-2.78-10.74-8.9Z"/><path d="M144.23,43.37a11.63,11.63,0,0,1-10.41,6.49c-5.67,0-11.38-3.31-11.38-9.88V30c0-6.53,5.71-9.88,11.51-9.88a10.72,10.72,0,0,1,10.16,6.66l-6,2.4c-2-3.59-8.41-2.77-8.41.82V40c0,3.47,6.53,4.45,8.12.45Z"/><path d="M171.21,49.45h-7.84l-1.87-5.8h-7.72L152,49.45h-7.84l10.08-28.9h6.65ZM159.74,37.16l-2-8.45h-.2l-2.13,8.45Z"/><path d="M181.82,40.26h-1.3v9.19h-7.39V20.55h11.55c6,0,10.57,2.74,10.73,9.51,0,5.35-2.16,8.37-5.67,9.47l7.88,9.92h-9.11Zm3-6.28a3.31,3.31,0,1,0,0-6.61h-4.28V34Z"/><polygon points="206.92 20.55 214.27 20.55 214.27 42.23 226.02 42.23 226.02 49.45 206.92 49.45 206.92 20.55"/><polygon points="228.92 20.55 236.27 20.55 236.27 42.23 248.02 42.23 248.02 49.45 228.92 49.45 228.92 20.55"/><path d="M271.77,43.37a11.63,11.63,0,0,1-10.41,6.49C255.69,49.86,250,46.55,250,40V30c0-6.53,5.71-9.88,11.51-9.88a10.72,10.72,0,0,1,10.16,6.66l-6,2.4c-2-3.59-8.41-2.77-8.41.82V40c0,3.47,6.53,4.45,8.13.45Z"/><polygon class="cls-1" points="42.06 9.94 42.06 17.27 37.07 14.37 33.91 12.53 33.91 12.53 30.75 14.37 25.72 17.3 25.72 50.03 19.4 46.35 19.4 20.97 8.23 27.46 8.23 20.13 19.4 13.64 25.72 9.96 30.75 7.04 33.91 5.21 33.91 5.2 33.91 5.21 37.07 7.04 42.06 9.94"/><polygon class="cls-1" points="37.07 15.79 37.07 62.96 33.91 64.8 30.75 62.96 14.55 53.54 8.23 49.87 8.23 37.76 14.55 34.09 14.55 46.21 30.75 55.63 30.75 15.79 33.91 13.95 37.07 15.79"/><polygon class="cls-1" points="53.27 31.74 53.27 23.79 48.38 20.95 48.38 49.05 53.27 46.21 53.27 42.36 59.59 38.68 59.59 49.87 53.27 53.54 48.38 56.39 42.06 60.06 42.06 9.94 48.38 13.61 53.27 16.45 59.59 20.13 59.59 28.07 53.27 31.74"/><polygon points="85.13 27.45 85.13 49.45 77.75 49.45 77.75 27.45 70.07 27.45 70.07 20.51 92.81 20.51 92.81 27.45 85.13 27.45"/></svg>