<?xml version="1.0" standalone="no"?><!DOCTYPE svg PUBLIC "-//W3C//DTD SVG 1.1//EN" "http://www.w3.org/Graphics/SVG/1.1/DTD/svg11.dtd"><svg t="1779611540703" class="icon" viewBox="0 0 1024 1024" version="1.1" xmlns="http://www.w3.org/2000/svg" p-id="1781" xmlns:xlink="http://www.w3.org/1999/xlink" width="200" height="200"><path d="M56.888889 56.888889h910.222222v910.222222H56.888889z" fill="#FFFFFF" p-id="1782"></path><path d="M113.777778 0h796.444444a113.777778 113.777778 0 0 1 113.777778 113.777778v796.444444a113.777778 113.777778 0 0 1-113.777778 113.777778H113.777778a113.777778 113.777778 0 0 1-113.777778-113.777778V113.777778a113.777778 113.777778 0 0 1 113.777778-113.777778z m0 56.888889a56.888889 56.888889 0 0 0-56.888889 56.888889v796.444444a56.888889 56.888889 0 0 0 56.888889 56.888889h796.444444a56.888889 56.888889 0 0 0 56.888889-56.888889V113.777778a56.888889 56.888889 0 0 0-56.888889-56.888889H113.777778z" fill="#E5E5E5" p-id="1783"></path><path d="M512 512m-284.444444 0a284.444444 284.444444 0 1 0 568.888888 0 284.444444 284.444444 0 1 0-568.888888 0Z" fill="#FF3C36" p-id="1784"></path></svg>