<svg width="200" height="200" viewBox="0 0 200 200" fill="none" xmlns="http://www.w3.org/2000/svg">
<g clip-path="url(#clip0_64_13)">
<path d="M11.1111 11.1111H188.889V188.889H11.1111V11.1111Z" fill="white"/>
<path d="M22.2222 0H177.778C183.671 0 189.324 2.34126 193.491 6.50874C197.659 10.6762 200 16.3285 200 22.2222V177.778C200 183.671 197.659 189.324 193.491 193.491C189.324 197.659 183.671 200 177.778 200H22.2222C16.3285 200 10.6762 197.659 6.50874 193.491C2.34126 189.324 0 183.671 0 177.778L0 22.2222C0 16.3285 2.34126 10.6762 6.50874 6.50874C10.6762 2.34126 16.3285 0 22.2222 0ZM22.2222 11.1111C19.2754 11.1111 16.4492 12.2817 14.3655 14.3655C12.2817 16.4492 11.1111 19.2754 11.1111 22.2222V177.778C11.1111 180.725 12.2817 183.551 14.3655 185.635C16.4492 187.718 19.2754 188.889 22.2222 188.889H177.778C180.725 188.889 183.551 187.718 185.635 185.635C187.718 183.551 188.889 180.725 188.889 177.778V22.2222C188.889 19.2754 187.718 16.4492 185.635 14.3655C183.551 12.2817 180.725 11.1111 177.778 11.1111H22.2222Z" fill="#E5E5E5"/>
<path d="M67.832 80.5867C66.1063 82.7156 64.8634 85.1823 64.1864 87.8216C63.5094 90.4609 63.4141 93.2119 63.9067 95.8904C64.3993 98.5688 65.4686 101.113 67.0429 103.352C68.6172 105.592 70.6601 107.475 73.0349 108.875C75.4098 110.275 78.0616 111.161 80.8129 111.472C83.5642 111.784 86.3515 111.514 88.988 110.68C91.6245 109.847 94.0495 108.47 96.1004 106.641C98.1514 104.812 99.781 102.573 100.88 100.075C103.732 96.3062 107.897 93.7022 112.578 92.7599C117.26 91.8176 122.131 92.603 126.26 94.9662C130.39 97.3293 133.489 101.105 134.967 105.571C136.444 110.038 136.195 114.883 134.269 119.181C137.311 114.302 139.2 108.815 139.796 103.123C140.392 97.4308 139.679 91.6801 137.711 86.295C135.743 80.9099 132.57 76.0279 128.425 72.0094C124.281 67.9909 119.271 64.9385 113.765 63.0775C108.26 61.2165 102.399 60.5944 96.6165 61.2572C90.8337 61.9199 85.2761 63.8506 80.354 66.9066C75.432 69.9627 71.2711 74.0661 68.1785 78.914C65.0859 83.7619 63.1405 89.2305 62.486 94.9161C63.1363 90.0384 64.7898 85.3417 67.346 81.1121L67.832 80.5867ZM77.7951 130.549C81.7792 133.513 86.3218 135.673 91.1602 136.901C87.4948 135.986 83.9893 134.537 80.7597 132.603C79.7358 131.969 78.7462 131.284 77.7951 130.549Z" fill="#C60C30"/>
<path d="M62 97.464V95C62.0975 95.8213 62.0487 96.6427 62 97.464ZM94.4585 137.807C93.5325 137.807 92.6065 137.469 91.6805 137.227C92.6065 137.469 93.5325 137.613 94.4585 137.807Z" fill="#C60C30"/>
<path d="M62.0556 102.895V104.231C62.1426 105.066 62.2682 105.891 62.4421 106.711C62.4989 107.097 62.5796 107.48 62.6837 107.856C62.848 108.71 63.0558 109.554 63.3119 110.384C63.4037 110.708 63.5148 111.028 63.6501 111.338C63.9053 112.229 64.2118 113.105 64.5681 113.962C64.6986 114.205 64.8097 114.462 64.9063 114.725C65.2929 115.621 65.7277 116.499 66.2109 117.348C66.3048 117.564 66.418 117.772 66.5491 117.968C67.0323 118.827 67.5155 119.638 68.0953 120.496L68.4818 121.116C69.0133 121.879 69.5932 122.595 70.173 123.31C70.3856 123.597 70.6078 123.864 70.8494 124.121C71.3326 124.694 71.8641 125.266 72.3956 125.791C72.7918 126.23 73.2073 126.64 73.6518 127.031L74.7148 128.033L76.9858 129.845H77.2757C78.2662 130.585 79.305 131.267 80.368 131.896C83.5788 133.828 87.0639 135.275 90.708 136.189H91.2878C92.2058 136.428 93.1239 136.571 94.0419 136.762H95.2982L97.4724 137H104.865L107.136 136.666H108.537L110.953 136.046L112.064 135.712C112.997 135.426 113.915 135.092 114.818 134.71L115.398 134.472C122.808 131.39 129.046 126.083 133.228 119.304L133.517 118.588C135.318 114.316 135.484 109.544 133.986 105.16C132.487 100.776 129.426 97.0786 125.372 94.7567C121.318 92.4348 116.547 91.6463 111.948 92.538C107.349 93.4298 103.235 95.941 100.372 99.6042C99.2095 102.005 97.5517 104.139 95.5045 105.87C93.4574 107.601 91.0661 108.89 88.4844 109.654C85.9028 110.418 83.1877 110.641 80.5136 110.308C77.8395 109.975 75.2656 109.093 72.9571 107.72C70.6486 106.347 68.6566 104.512 67.1091 102.333C65.5616 100.155 64.4927 97.6809 63.9711 95.0704C63.4496 92.4599 63.4869 89.7707 64.0806 87.1753C64.6744 84.5799 65.8115 82.1358 67.4189 80L67.129 80.477C64.5876 84.7007 62.9437 89.3909 62.2972 94.2619V100.463C61.959 101.369 61.959 102.132 62.0556 102.895Z" fill="#003478"/>
<path d="M40.8126 83.3063L61.7906 52.3332L56.8909 48.918L35.9605 80.1283L40.8126 83.3063ZM28.5635 75.0104L49.5272 44.0325L54.346 47.2769L33.3823 78.2595L28.5635 75.0104ZM153.647 63.4323L143.895 49.0603L139.138 52.3332L148.795 66.7051L153.647 63.4323ZM21 129.908L25.814 126.678L46.7349 157.632L41.9209 160.867L21 129.908ZM46.8063 42.2776L42.0018 39.0522L21.0238 70.0253L25.8758 73.2507L46.8063 42.2776ZM150.298 68.9201L155.112 65.6948L164.835 80.0904L160.021 83.3253L150.298 68.9201ZM148.89 133.489L139.138 147.909L143.99 151.087L153.694 136.715L148.89 133.489ZM150.364 131.023L155.169 134.248L164.921 119.829L160.116 116.604L150.364 131.023ZM35.8368 119.924L40.6461 116.689L61.6146 147.672L56.8006 150.906L35.8368 119.924ZM172.341 125.047L167.537 121.774L157.785 136.193L162.59 139.418L172.341 125.047ZM39.6709 141.6L49.375 155.972L54.2271 152.794L44.523 138.422L39.6709 141.6ZM172.532 75.148L151.554 44.1274L146.654 47.3054L167.632 78.2785L172.532 75.148ZM28.397 125.094L38.1963 139.513L43.0007 136.288L33.2491 121.916L28.397 125.094ZM175.196 73.393L180 70.1676L170.248 55.7957L165.396 59.0211L175.196 73.393ZM154.032 42.2396L158.841 39L168.593 53.3861L163.779 56.6258L154.032 42.2396ZM154.027 157.822L158.832 161L168.536 146.628L163.731 143.403L154.027 157.822ZM156.406 138.422L146.654 152.842L151.506 155.972L161.258 141.6L156.406 138.422ZM165.244 141.188L174.972 126.792L179.786 130.027L170.058 144.422L165.244 141.188Z" fill="#231815"/>
</g>
<defs>
<clipPath id="clip0_64_13">
<rect width="200" height="200" fill="white"/>
</clipPath>
</defs>
</svg>
