<svg width="200" height="200" viewBox="0 0 200 200" fill="none" xmlns="http://www.w3.org/2000/svg">
  <g clip-path="url(#mng-clip)">
    <path d="M11.111 11.111H188.889V188.889H11.111V11.111Z" fill="white"/>
    <path d="M22.222 0H177.778C183.671 0 189.324 2.341 193.491 6.509C197.659 10.676 200 16.329 200 22.222V177.778C200 183.671 197.659 189.324 193.491 193.491C189.324 197.659 183.671 200 177.778 200H22.222C16.329 200 10.676 197.659 6.509 193.491C2.341 189.324 0 183.671 0 177.778V22.222C0 16.329 2.341 10.676 6.509 6.509C10.676 2.341 16.329 0 22.222 0ZM22.222 11.111C19.275 11.111 16.449 12.282 14.365 14.365C12.282 16.449 11.111 19.275 11.111 22.222V177.778C11.111 180.725 12.282 183.551 14.365 185.635C16.449 187.718 19.275 188.889 22.222 188.889H177.778C180.725 188.889 183.551 187.718 185.635 185.635C187.718 183.551 188.889 180.725 188.889 177.778V22.222C188.889 19.275 187.718 16.449 185.635 14.365C183.551 12.282 180.725 11.111 177.778 11.111H22.222Z" fill="#E5E5E5"/>
    <rect x="11.111" y="11.111" width="59.259" height="177.778" fill="#C4272F"/>
    <rect x="70.370" y="11.111" width="59.259" height="177.778" fill="#0066B3"/>
    <rect x="129.629" y="11.111" width="59.259" height="177.778" fill="#C4272F"/>
    <g transform="translate(32, 64)" fill="#F9CF02">
      <path d="M3 0 L8 -8 L13 0 Z"/>
      <circle cx="8" cy="11" r="3.4"/>
      <path d="M2 21 L8 28 L14 21 L11 21 L8 25 L5 21 Z"/>
      <rect x="0" y="33" width="16" height="1.8"/>
      <rect x="0" y="38" width="16" height="1.8"/>
      <rect x="0" y="43" width="16" height="1.8"/>
      <path d="M3 51 L8 59 L13 51 Z"/>
    </g>
  </g>
  <defs>
    <clipPath id="mng-clip">
      <rect width="200" height="200" fill="white"/>
    </clipPath>
  </defs>
</svg>
